<svg width="200" height="57" viewBox="0 0 200 57" fill="none" xmlns="http://www.w3.org/2000/svg">
<path d="M3.5625 43.5391C4.04688 42.4609 4.44531 41.5938 4.75781 40.9375C5.07031 40.2656 5.35156 39.75 5.60156 39.3906C5.86719 39.0156 6.125 38.7656 6.375 38.6406C6.64062 38.5156 6.96875 38.4531 7.35938 38.4531C7.95312 38.4531 8.46094 38.6484 8.88281 39.0391C9.32031 39.4141 9.53906 39.8984 9.53906 40.4922C9.53906 40.6328 9.51562 40.7734 9.46875 40.9141C9.4375 41.0547 9.39062 41.1953 9.32812 41.3359L5.34375 50.7578C5.28125 50.8828 5.23438 51.0234 5.20312 51.1797C5.1875 51.3203 5.17969 51.4375 5.17969 51.5312C5.17969 51.7344 5.21875 51.8906 5.29688 52C5.39062 52.0938 5.48438 52.1406 5.57812 52.1406C5.75 52.1406 5.92188 52.1016 6.09375 52.0234C6.28125 51.9453 6.49219 51.8125 6.72656 51.625C6.97656 51.4219 7.27344 51.1562 7.61719 50.8281C7.97656 50.4844 8.41406 50.0547 8.92969 49.5391C9.41406 49.0234 9.91406 48.4062 10.4297 47.6875C10.9453 46.9531 11.4453 46.1875 11.9297 45.3906C12.4297 44.5781 12.8906 43.7656 13.3125 42.9531C13.7344 42.125 14.1016 41.3594 14.4141 40.6562C14.6484 40.1875 14.8594 39.8125 15.0469 39.5312C15.2344 39.2344 15.4141 39.0078 15.5859 38.8516C15.7734 38.6953 15.9609 38.5938 16.1484 38.5469C16.3359 38.4844 16.5547 38.4531 16.8047 38.4531C17.7578 38.4531 18.2344 38.8672 18.2344 39.6953C18.2031 39.8203 18.1797 39.9609 18.1641 40.1172C18.1641 40.2734 18.125 40.4531 18.0469 40.6562L14.3906 51.4609C14.3906 51.8516 14.5859 52.0469 14.9766 52.0469C15.2578 52.0156 15.625 51.875 16.0781 51.625C16.5469 51.3594 17.0156 51.0312 17.4844 50.6406C17.9531 50.2344 18.3906 49.7734 18.7969 49.2578C19.2031 48.7266 19.5 48.1797 19.6875 47.6172C20.0312 46.5859 20.375 45.5469 20.7188 44.5C21.0781 43.4531 21.4531 42.5078 21.8438 41.6641C22.25 40.8047 22.6797 40.1016 23.1328 39.5547C23.6016 38.9922 24.1172 38.6875 24.6797 38.6406C25.1797 38.6406 25.5859 38.8047 25.8984 39.1328C26.2266 39.4453 26.3906 39.8594 26.3906 40.375C26.3906 40.9844 26.3047 41.6406 26.1328 42.3438C25.9766 43.0469 25.7656 43.75 25.5 44.4531C25.2344 45.1562 24.9141 45.8359 24.5391 46.4922C24.1797 47.1484 23.8047 47.7422 23.4141 48.2734C23.5234 48.6016 23.75 48.7656 24.0938 48.7656C24.7031 48.7656 25.2734 48.7188 25.8047 48.625C26.3516 48.5312 26.875 48.3984 27.375 48.2266C27.8906 48.0391 28.3984 47.8203 28.8984 47.5703C29.4141 47.3203 29.9453 47.0312 30.4922 46.7031C30.7422 46.5312 30.9922 46.4453 31.2422 46.4453C31.5547 46.4453 31.8359 46.5625 32.0859 46.7969C32.3359 47.0312 32.4609 47.3359 32.4609 47.7109C32.4609 48.0547 32.3047 48.4062 31.9922 48.7656C31.6953 49.125 31.2969 49.4766 30.7969 49.8203C30.2969 50.1641 29.7266 50.4844 29.0859 50.7812C28.4609 51.0781 27.8203 51.3438 27.1641 51.5781C26.5234 51.7969 25.8984 51.9766 25.2891 52.1172C24.6953 52.2422 24.1719 52.3047 23.7188 52.3047C22.8438 52.3047 21.9453 52.0547 21.0234 51.5547C19.9297 52.8672 18.7891 53.8672 17.6016 54.5547C16.4297 55.2422 15.2344 55.5859 14.0156 55.5859C12.8906 55.5859 12.0781 55.2969 11.5781 54.7188C11.0938 54.125 10.8516 53.2656 10.8516 52.1406C9.67969 53.3281 8.57812 54.2031 7.54688 54.7656C6.53125 55.3125 5.48438 55.5859 4.40625 55.5859C3.71875 55.5859 3.14062 55.5 2.67188 55.3281C2.21875 55.1719 1.85156 54.9453 1.57031 54.6484C1.28906 54.3516 1.08594 54.0078 0.960938 53.6172C0.851562 53.2109 0.796875 52.7734 0.796875 52.3047C0.796875 51.5391 0.90625 50.7344 1.125 49.8906C1.34375 49.0312 1.60156 48.2031 1.89844 47.4062C2.21094 46.6094 2.51562 45.875 2.8125 45.2031C3.125 44.5156 3.375 43.9609 3.5625 43.5391ZM40.377 39.4434C40.2891 39.4258 40.21 39.417 40.1396 39.417C40.0693 39.417 39.9902 39.417 39.9023 39.417C39.2344 39.417 38.6104 39.5488 38.0303 39.8125C37.4502 40.0762 36.9141 40.4277 36.4219 40.8672C35.9473 41.2891 35.5166 41.7725 35.1299 42.3174C34.7607 42.8623 34.4268 43.4072 34.1279 43.9521C33.8291 44.4795 33.5742 44.9893 33.3633 45.4814C33.1699 45.9736 33.0205 46.3867 32.915 46.7207C33.5303 46.4043 34.1631 46.0439 34.8135 45.6396C35.4814 45.2354 36.1055 44.8486 36.6855 44.4795C37.2656 44.1104 37.7666 43.7764 38.1885 43.4775C38.6279 43.1787 38.9355 42.9766 39.1113 42.8711C39.9023 42.3789 40.4473 41.9219 40.7461 41.5C41.0449 41.0605 41.1943 40.6826 41.1943 40.3662C41.1943 40.1025 41.1064 39.8916 40.9307 39.7334C40.7725 39.5752 40.5879 39.4785 40.377 39.4434ZM41.3262 35.8047C42.7852 35.8047 43.875 36.1562 44.5957 36.8594C45.3164 37.5625 45.6768 38.5381 45.6768 39.7861C45.6768 40.5244 45.4834 41.2979 45.0967 42.1064C44.71 42.915 44.042 43.7412 43.0928 44.585C42.1436 45.4111 40.8691 46.2637 39.2695 47.1426C37.6875 48.0039 35.7012 48.874 33.3105 49.7529C33.3984 50.2627 33.6709 50.667 34.1279 50.9658C34.585 51.2471 35.1914 51.3877 35.9473 51.3877C36.7559 51.3877 37.6172 51.2734 38.5312 51.0449C39.4629 50.7988 40.377 50.4912 41.2734 50.1221C42.1875 49.7529 43.0752 49.3574 43.9365 48.9355C44.7979 48.4961 45.5713 48.083 46.2568 47.6963C46.96 47.3096 47.54 46.9756 47.9971 46.6943C48.4717 46.4131 48.7881 46.2373 48.9463 46.167C49.1045 46.0615 49.2451 46 49.3682 45.9824C49.5088 45.9648 49.6318 45.9561 49.7373 45.9561C49.9482 45.9561 50.124 46.0088 50.2646 46.1143C50.4053 46.2021 50.5195 46.3164 50.6074 46.457C50.7129 46.5801 50.7832 46.7207 50.8184 46.8789C50.8535 47.0195 50.8711 47.1426 50.8711 47.248C50.8711 47.4062 50.8535 47.5996 50.8184 47.8281C50.7832 48.0391 50.6514 48.2852 50.4229 48.5664C50.335 48.6543 50.0361 48.8916 49.5264 49.2783C49.0342 49.665 48.3926 50.1221 47.6016 50.6494C46.8105 51.1768 45.8877 51.7393 44.833 52.3369C43.7959 52.917 42.6885 53.4531 41.5107 53.9453C40.3506 54.4375 39.1377 54.8418 37.8721 55.1582C36.6064 55.4922 35.3584 55.6592 34.1279 55.6592C33.0732 55.6592 32.1328 55.457 31.3066 55.0527C30.498 54.6484 29.8037 54.1035 29.2236 53.418C28.6611 52.7324 28.2305 51.9414 27.9316 51.0449C27.6328 50.1484 27.4834 49.208 27.4834 48.2236C27.4834 47.4678 27.6328 46.6416 27.9316 45.7451C28.2305 44.8311 28.6611 43.917 29.2236 43.0029C29.7861 42.0889 30.4717 41.2012 31.2803 40.3398C32.1064 39.4609 33.0293 38.6875 34.0488 38.0195C35.0684 37.3516 36.1846 36.8154 37.3975 36.4111C38.6279 36.0068 39.9375 35.8047 41.3262 35.8047ZM49.7344 40.6738C50.3398 39.3262 50.8379 38.2422 51.2285 37.4219C51.6191 36.582 51.9707 35.9375 52.2832 35.4883C52.6152 35.0195 52.9375 34.707 53.25 34.5508C53.582 34.3945 53.9922 34.3164 54.4805 34.3164C55.2227 34.3164 55.8574 34.5605 56.3848 35.0488C56.9316 35.5176 57.2051 36.123 57.2051 36.8652C57.2051 37.041 57.1758 37.2168 57.1172 37.3926C57.0781 37.5684 57.0195 37.7441 56.9414 37.9199L51.9609 49.6973C51.8828 49.8535 51.8242 50.0293 51.7852 50.2246C51.7656 50.4004 51.7559 50.5469 51.7559 50.6641C51.7559 50.918 51.8047 51.1133 51.9023 51.25C52.0195 51.3672 52.1367 51.4258 52.2539 51.4258C52.4688 51.4258 52.6836 51.377 52.8984 51.2793C53.1328 51.1816 53.3965 51.0156 53.6895 50.7812C54.002 50.5273 54.373 50.1953 54.8027 49.7852C55.252 49.3555 55.7988 48.8184 56.4434 48.1738C57.0488 47.5293 57.6738 46.7578 58.3184 45.8594C58.9629 44.9414 59.5879 43.9844 60.1934 42.9883C60.8184 41.9727 61.3945 40.957 61.9219 39.9414C62.4492 38.9062 62.9082 37.9492 63.2988 37.0703C63.5918 36.4844 63.8555 36.0156 64.0898 35.6641C64.3242 35.293 64.5488 35.0098 64.7637 34.8145C64.998 34.6191 65.2324 34.4922 65.4668 34.4336C65.7012 34.3555 65.9746 34.3164 66.2871 34.3164C67.4785 34.3164 68.0742 34.834 68.0742 35.8691C68.0352 36.0254 68.0059 36.2012 67.9863 36.3965C67.9863 36.5918 67.9375 36.8164 67.8398 37.0703L63.2695 50.5762C63.2695 51.0645 63.5137 51.3086 64.002 51.3086C64.3535 51.2695 64.8125 51.0938 65.3789 50.7812C65.9648 50.4492 66.5508 50.0391 67.1367 49.5508C67.7227 49.043 68.2695 48.4668 68.7773 47.8223C69.2852 47.1582 69.6562 46.4746 69.8906 45.7715C70.3203 44.4824 70.75 43.1836 71.1797 41.875C71.6289 40.5664 72.0977 39.3848 72.5859 38.3301C73.0938 37.2559 73.6309 36.377 74.1973 35.6934C74.7832 34.9902 75.4277 34.6094 76.1309 34.5508C76.7559 34.5508 77.2637 34.7559 77.6543 35.166C78.0645 35.5566 78.2695 36.0742 78.2695 36.7188C78.2695 37.4805 78.1621 38.3008 77.9473 39.1797C77.752 40.0586 77.4883 40.9375 77.1562 41.8164C76.8242 42.6953 76.4238 43.5449 75.9551 44.3652C75.5059 45.1855 75.0371 45.9277 74.5488 46.5918C74.6855 47.002 74.9688 47.207 75.3984 47.207C76.1602 47.207 76.873 47.1484 77.5371 47.0312C78.2207 46.9141 78.875 46.748 79.5 46.5332C80.1445 46.2988 80.7793 46.0254 81.4043 45.7129C82.0488 45.4004 82.7129 45.0391 83.3965 44.6289C83.709 44.4141 84.0215 44.3066 84.334 44.3066C84.7246 44.3066 85.0762 44.4531 85.3887 44.7461C85.7012 45.0391 85.8574 45.4199 85.8574 45.8887C85.8574 46.3184 85.6621 46.7578 85.2715 47.207C84.9004 47.6562 84.4023 48.0957 83.7773 48.5254C83.1523 48.9551 82.4395 49.3555 81.6387 49.7266C80.8574 50.0977 80.0566 50.4297 79.2363 50.7227C78.4355 50.9961 77.6543 51.2207 76.8926 51.3965C76.1504 51.5527 75.4961 51.6309 74.9297 51.6309C73.8359 51.6309 72.7129 51.3184 71.5605 50.6934C70.1934 52.334 68.7676 53.584 67.2832 54.4434C65.8184 55.3027 64.3242 55.7324 62.8008 55.7324C61.3945 55.7324 60.3789 55.3711 59.7539 54.6484C59.1484 53.9062 58.8457 52.832 58.8457 51.4258C57.3809 52.9102 56.0039 54.0039 54.7148 54.707C53.4453 55.3906 52.1367 55.7324 50.7891 55.7324C49.9297 55.7324 49.207 55.625 48.6211 55.4102C48.0547 55.2148 47.5957 54.9316 47.2441 54.5605C46.8926 54.1895 46.6387 53.7598 46.4824 53.2715C46.3457 52.7637 46.2773 52.2168 46.2773 51.6309C46.2773 50.6738 46.4141 49.668 46.6875 48.6133C46.9609 47.5391 47.2832 46.5039 47.6543 45.5078C48.0449 44.5117 48.4258 43.5938 48.7969 42.7539C49.1875 41.8945 49.5 41.2012 49.7344 40.6738ZM94.793 37.4043C93.7832 37.4043 92.8057 37.6621 91.8604 38.1777C90.915 38.6934 90.0771 39.3701 89.3467 40.208C88.6162 41.0459 88.0361 41.9912 87.6064 43.0439C87.1768 44.0752 86.9619 45.1172 86.9619 46.1699C86.9619 46.5996 86.9834 47.0508 87.0264 47.5234C87.0908 47.9746 87.2197 48.3936 87.4131 48.7803C87.6064 49.167 87.875 49.4893 88.2188 49.7471C88.584 50.0049 89.0674 50.1338 89.6689 50.1338C90.1416 50.1338 90.6895 49.9297 91.3125 49.5215C91.957 49.0918 92.6123 48.5547 93.2783 47.9102C93.9658 47.2441 94.6318 46.5244 95.2764 45.751C95.9209 44.9561 96.501 44.1826 97.0166 43.4307C97.5322 42.6787 97.9512 42.002 98.2734 41.4004C98.5957 40.7988 98.7568 40.3584 98.7568 40.0791C98.7568 39.6709 98.6172 39.3057 98.3379 38.9834C98.0586 38.6396 97.7148 38.3496 97.3066 38.1133C96.8984 37.877 96.458 37.7051 95.9854 37.5977C95.5342 37.4688 95.1367 37.4043 94.793 37.4043ZM117.126 45.7188C116.739 46.084 116.224 46.5889 115.579 47.2334C114.935 47.8779 114.193 48.5762 113.355 49.3281C112.539 50.0801 111.658 50.8428 110.713 51.6162C109.789 52.3682 108.833 53.0557 107.845 53.6787C106.878 54.3018 105.922 54.8066 104.977 55.1934C104.031 55.6016 103.14 55.8057 102.302 55.8057C101.55 55.8057 100.905 55.6445 100.368 55.3223C99.8311 55 99.3799 54.5811 99.0146 54.0654C98.6709 53.5498 98.4131 52.9697 98.2412 52.3252C98.0693 51.6592 97.9834 50.9824 97.9834 50.2949C97.9834 49.8438 98.0156 49.4033 98.0801 48.9736C98.1445 48.5225 98.252 48.1035 98.4023 47.7168C97.7363 48.6191 96.9736 49.5537 96.1143 50.5205C95.2764 51.4658 94.3633 52.3359 93.375 53.1309C92.4082 53.9043 91.3877 54.5381 90.3135 55.0322C89.2607 55.5479 88.1865 55.8057 87.0908 55.8057C86.5322 55.8057 85.877 55.6875 85.125 55.4512C84.3945 55.2363 83.6963 54.8711 83.0303 54.3555C82.3643 53.8398 81.8057 53.1738 81.3545 52.3574C80.9033 51.541 80.6777 50.542 80.6777 49.3604C80.6777 48.4795 80.8066 47.4268 81.0645 46.2021C81.3438 44.9775 81.752 43.71 82.2891 42.3994C82.8477 41.0674 83.5459 39.7568 84.3838 38.4678C85.2432 37.1787 86.2529 36.0293 87.4131 35.0195C88.5732 33.9883 89.8945 33.1611 91.377 32.5381C92.8594 31.8936 94.5137 31.5713 96.3398 31.5713C97.2852 31.5713 98.1123 31.6895 98.8213 31.9258C99.5303 32.1621 100.132 32.4199 100.626 32.6992C101.185 33.043 101.679 33.4189 102.108 33.8271C102.474 33.6338 102.85 33.4512 103.236 33.2793C103.559 33.1289 103.892 33 104.235 32.8926C104.601 32.7637 104.912 32.6992 105.17 32.6992C105.986 32.6992 106.652 32.9248 107.168 33.376C107.684 33.8271 107.941 34.3213 107.941 34.8584C107.941 35.0088 107.931 35.127 107.909 35.2129C107.802 35.6211 107.63 36.1367 107.394 36.7598C107.179 37.3828 106.932 38.0811 106.652 38.8545C106.373 39.6064 106.083 40.4014 105.782 41.2393C105.503 42.0557 105.245 42.8613 105.009 43.6562C104.772 44.4512 104.579 45.2031 104.429 45.9121C104.278 46.5996 104.203 47.1904 104.203 47.6846C104.203 48.3291 104.311 48.8662 104.525 49.2959C104.74 49.7041 105.105 49.9082 105.621 49.9082C105.943 49.9082 106.319 49.8115 106.749 49.6182C107.2 49.4033 107.684 49.124 108.199 48.7803C108.715 48.4365 109.241 48.0498 109.778 47.6201C110.337 47.1689 110.874 46.7178 111.39 46.2666C112.593 45.1924 113.871 43.9678 115.225 42.5928C115.568 42.3135 115.901 42.1738 116.224 42.1738C116.653 42.1738 117.008 42.3887 117.287 42.8184C117.588 43.2266 117.738 43.6885 117.738 44.2041C117.738 44.8057 117.534 45.3105 117.126 45.7188ZM124.559 35.4531C123.691 37.1406 122.871 38.793 122.098 40.4102C121.324 42.0039 120.598 43.4805 119.918 44.8398C119.637 45.4023 119.355 46.0586 119.074 46.8086C118.816 47.5352 118.688 48.1797 118.688 48.7422C118.688 49.0703 118.758 49.3281 118.898 49.5156C119.062 49.7031 119.32 49.7969 119.672 49.7969C120.164 49.7969 120.785 49.6562 121.535 49.375C122.285 49.0703 123.094 48.6836 123.961 48.2148C124.828 47.7227 125.742 47.1719 126.703 46.5625C127.664 45.9297 128.602 45.2852 129.516 44.6289C130.453 43.9492 131.344 43.2812 132.188 42.625C133.031 41.9453 133.781 41.3242 134.438 40.7617C134.812 40.5039 135.164 40.375 135.492 40.375C135.891 40.375 136.219 40.5508 136.477 40.9023C136.734 41.2539 136.863 41.6992 136.863 42.2383C136.863 42.7773 136.734 43.3281 136.477 43.8906C136.219 44.4531 135.75 45.0039 135.07 45.543C133.547 46.9258 132 48.2383 130.43 49.4805C128.883 50.7227 127.336 51.8242 125.789 52.7852C124.266 53.7227 122.754 54.4727 121.254 55.0352C119.754 55.5977 118.301 55.8789 116.895 55.8789C115.957 55.8789 115.172 55.75 114.539 55.4922C113.906 55.2578 113.391 54.9297 112.992 54.5078C112.617 54.0625 112.348 53.5586 112.184 52.9961C112.02 52.4102 111.938 51.7891 111.938 51.1328C111.938 49.9609 112.137 48.7422 112.535 47.4766C112.934 46.2109 113.379 45.0742 113.871 44.0664C114.574 42.6133 115.266 41.1719 115.945 39.7422C116.648 38.3125 117.328 36.9414 117.984 35.6289H116.473C115.16 35.6289 114.258 35.418 113.766 34.9961C113.273 34.5742 113.027 34.0938 113.027 33.5547C113.027 33.3203 113.098 33.0391 113.238 32.7109C113.402 32.3594 113.625 32.043 113.906 31.7617C114.211 31.457 114.574 31.1992 114.996 30.9883C115.418 30.7773 115.898 30.6719 116.438 30.6719H120.234L127.652 15.9414C128.121 15.0508 128.695 14.418 129.375 14.043C130.078 13.6445 130.805 13.4453 131.555 13.4453C132.258 13.4453 132.902 13.6328 133.488 14.0078C134.074 14.3828 134.367 15.0039 134.367 15.8711C134.367 16.3164 134.262 16.7734 134.051 17.2422C133.863 17.6875 133.605 18.2148 133.277 18.8242C133.066 19.2227 132.809 19.7031 132.504 20.2656C132.199 20.8047 131.871 21.3906 131.52 22.0234C131.191 22.6328 130.84 23.2773 130.465 23.957C130.113 24.6367 129.762 25.293 129.41 25.9258C128.613 27.4258 127.77 29.0078 126.879 30.6719H138.34C138.902 30.6719 139.418 30.707 139.887 30.7773C140.355 30.8242 140.754 30.9414 141.082 31.1289C141.434 31.293 141.703 31.5273 141.891 31.832C142.078 32.1367 142.172 32.5469 142.172 33.0625C142.172 33.3203 142.125 33.5781 142.031 33.8359C141.961 34.0938 141.809 34.3281 141.574 34.5391C141.363 34.75 141.059 34.9258 140.66 35.0664C140.285 35.207 139.793 35.3008 139.184 35.3477L124.559 35.4531ZM154.433 30.8154C154.433 31.6025 154.344 32.4785 154.166 33.4434C153.988 34.3828 153.696 35.2715 153.29 36.1094C152.884 36.9473 152.363 37.6455 151.729 38.2041C151.094 38.7627 150.307 39.042 149.367 39.042C148.859 39.042 148.529 38.9658 148.377 38.8135C148.25 38.6611 148.187 38.3945 148.187 38.0137C148.187 37.7852 148.187 37.4551 148.187 37.0234C148.212 36.5664 148.225 36.1348 148.225 35.7285C148.225 35.2715 148.161 34.8906 148.034 34.5859C147.907 34.2559 147.59 34.0908 147.082 34.0908C146.498 34.0908 145.838 34.3193 145.102 34.7764C144.391 35.208 143.667 35.7793 142.931 36.4902C142.22 37.2012 141.521 38.0137 140.836 38.9277C140.15 39.8164 139.528 40.7305 138.97 41.6699C138.437 42.584 138.005 43.4727 137.675 44.3359C137.37 45.1992 137.218 45.9355 137.218 46.5449C137.218 47.4336 137.522 48.1318 138.132 48.6396C138.767 49.1475 139.617 49.4014 140.684 49.4014C141.826 49.4014 143.045 49.2109 144.34 48.8301C145.635 48.4492 146.917 47.9668 148.187 47.3828C149.481 46.7988 150.726 46.1641 151.919 45.4785C153.112 44.793 154.191 44.1455 155.156 43.5361C156.146 42.9014 156.972 42.3682 157.632 41.9365C158.292 41.4795 158.724 41.2002 158.927 41.0986C159.333 40.8955 159.714 40.7939 160.069 40.7939C160.374 40.7939 160.628 40.8701 160.831 41.0225C161.06 41.1494 161.237 41.3145 161.364 41.5176C161.491 41.6953 161.58 41.8984 161.631 42.127C161.682 42.3301 161.707 42.5078 161.707 42.6602C161.707 42.8887 161.682 43.168 161.631 43.498C161.58 43.8027 161.39 44.1582 161.06 44.5645C160.933 44.7168 160.514 45.1104 159.803 45.7451C159.117 46.3545 158.216 47.0781 157.099 47.916C156.007 48.7539 154.737 49.6553 153.29 50.6201C151.868 51.5596 150.332 52.4229 148.682 53.21C147.057 53.9971 145.368 54.6445 143.616 55.1523C141.864 55.6855 140.138 55.9521 138.437 55.9521C137.142 55.9521 135.986 55.749 134.971 55.3428C133.98 54.9365 133.143 54.3906 132.457 53.7051C131.771 52.9941 131.251 52.1689 130.896 51.2295C130.54 50.29 130.362 49.2998 130.362 48.2588C130.362 47.1162 130.629 45.8086 131.162 44.3359C131.695 42.8379 132.432 41.3145 133.371 39.7656C134.311 38.2168 135.415 36.6934 136.685 35.1953C137.954 33.6973 139.325 32.3643 140.798 31.1963C142.296 30.0283 143.845 29.0889 145.444 28.3779C147.069 27.667 148.707 27.3115 150.357 27.3115C150.916 27.3115 151.437 27.375 151.919 27.502C152.427 27.6289 152.858 27.832 153.214 28.1113C153.595 28.3652 153.887 28.7207 154.09 29.1777C154.318 29.6348 154.433 30.1807 154.433 30.8154ZM153.926 48.5195C154.582 47.125 155.334 45.5801 156.182 43.8848C157.029 42.1621 157.877 40.4668 158.725 38.7988C159.6 37.1035 160.42 35.5039 161.186 34C161.951 32.4688 162.594 31.1699 163.113 30.1035L176.648 3.48438C176.812 3.12891 177.059 2.78711 177.387 2.45898C177.742 2.13086 178.139 1.84375 178.576 1.59766C179.014 1.32422 179.479 1.11914 179.971 0.982422C180.463 0.818359 180.955 0.736328 181.447 0.736328C182.65 0.736328 183.484 0.96875 183.949 1.43359C184.414 1.87109 184.646 2.41797 184.646 3.07422C184.646 3.67578 184.496 4.31836 184.195 5.00195C183.895 5.6582 183.553 6.27344 183.17 6.84766C181.967 8.89844 180.805 10.9766 179.684 13.082C178.59 15.1602 177.482 17.2656 176.361 19.3984C175.268 21.5039 174.16 23.6094 173.039 25.7148C171.918 27.793 170.742 29.8574 169.512 31.9082C170.277 31.1699 171.084 30.4043 171.932 29.6113C172.807 28.8184 173.75 28.0938 174.762 27.4375C175.773 26.7812 176.881 26.248 178.084 25.8379C179.287 25.4004 180.627 25.1816 182.104 25.1816C182.979 25.1816 183.812 25.2637 184.605 25.4277C185.398 25.5918 186.096 25.8652 186.697 26.248C187.299 26.6035 187.777 27.1094 188.133 27.7656C188.488 28.3945 188.666 29.1738 188.666 30.1035C188.666 31.334 188.475 32.4688 188.092 33.5078C187.736 34.5195 187.271 35.4902 186.697 36.4199C186.123 37.3223 185.494 38.1973 184.811 39.0449C184.127 39.8652 183.471 40.7129 182.842 41.5879C182.24 42.4355 181.707 43.3242 181.242 44.2539C180.805 45.1836 180.531 46.1953 180.422 47.2891C180.422 47.3438 180.408 47.3984 180.381 47.4531C180.381 47.5078 180.381 47.5625 180.381 47.6172C180.381 48.1641 180.559 48.5059 180.914 48.6426C181.297 48.7793 181.775 48.8477 182.35 48.8477C183.088 48.8477 183.881 48.7109 184.729 48.4375C185.576 48.1367 186.424 47.7539 187.271 47.2891C188.146 46.7969 189.008 46.25 189.855 45.6484C190.73 45.0469 191.551 44.4316 192.316 43.8027C193.109 43.1738 193.834 42.5723 194.49 41.998C195.146 41.3965 195.707 40.877 196.172 40.4395C196.418 40.2207 196.678 40.0566 196.951 39.9473C197.225 39.8379 197.484 39.7832 197.73 39.7832C198.223 39.7832 198.633 39.9746 198.961 40.3574C199.316 40.7129 199.494 41.2051 199.494 41.834C199.494 42.4082 199.289 43.0645 198.879 43.8027C198.496 44.541 197.826 45.2793 196.869 46.0176C195.365 47.3301 193.834 48.5879 192.275 49.791C190.717 50.9941 189.145 52.0605 187.559 52.9902C185.973 53.9199 184.387 54.6582 182.801 55.2051C181.242 55.752 179.711 56.0254 178.207 56.0254C176.266 56.0254 174.707 55.5879 173.531 54.7129C172.355 53.8105 171.768 52.4023 171.768 50.4883C171.768 49.0938 172 47.7812 172.465 46.5508C172.957 45.293 173.545 44.0898 174.229 42.9414C174.939 41.7656 175.691 40.6445 176.484 39.5781C177.277 38.4844 177.975 37.418 178.576 36.3789C178.904 35.9141 179.15 35.4902 179.314 35.1074C179.506 34.6973 179.602 34.2598 179.602 33.7949C179.602 33.3848 179.492 33.0566 179.273 32.8105C179.055 32.5371 178.713 32.4004 178.248 32.4004C176.635 32.4004 175.145 32.7969 173.777 33.5898C172.41 34.3828 171.152 35.3945 170.004 36.625C168.855 37.8555 167.789 39.209 166.805 40.6855C165.82 42.1348 164.904 43.5293 164.057 44.8691C163.674 45.4707 163.277 46.168 162.867 46.9609C162.484 47.7266 162.074 48.5195 161.637 49.3398C161.227 50.1602 160.789 50.9805 160.324 51.8008C159.859 52.5938 159.367 53.3047 158.848 53.9336C158.355 54.5625 157.822 55.0684 157.248 55.4512C156.701 55.834 156.127 56.0254 155.525 56.0254C154.568 56.0254 153.83 55.7383 153.311 55.1641C152.791 54.6172 152.531 53.9199 152.531 53.0723C152.531 52.4434 152.641 51.7871 152.859 51.1035C153.078 50.3926 153.434 49.5312 153.926 48.5195Z" fill="#2269D2"/>
</svg>
