<svg width="96" height="52" viewBox="0 0 96 52" fill="none" xmlns="http://www.w3.org/2000/svg">
<path d="M8.6875 15.6172C10.1406 12.3828 11.3359 9.78125 12.2734 7.8125C13.2109 5.79688 14.0547 4.25 14.8047 3.17188C15.6016 2.04688 16.375 1.29688 17.125 0.921875C17.9219 0.546875 18.9062 0.359375 20.0781 0.359375C21.8594 0.359375 23.3828 0.945312 24.6484 2.11719C25.9609 3.24219 26.6172 4.69531 26.6172 6.47656C26.6172 6.89844 26.5469 7.32031 26.4062 7.74219C26.3125 8.16406 26.1719 8.58594 25.9844 9.00781L14.0312 37.2734C13.8438 37.6484 13.7031 38.0703 13.6094 38.5391C13.5625 38.9609 13.5391 39.3125 13.5391 39.5938C13.5391 40.2031 13.6562 40.6719 13.8906 41C14.1719 41.2812 14.4531 41.4219 14.7344 41.4219C15.25 41.4219 15.7656 41.3047 16.2812 41.0703C16.8438 40.8359 17.4766 40.4375 18.1797 39.875C18.9297 39.2656 19.8203 38.4688 20.8516 37.4844C21.9297 36.4531 23.2422 35.1641 24.7891 33.6172C26.2422 32.0703 27.7422 30.2188 29.2891 28.0625C30.8359 25.8594 32.3359 23.5625 33.7891 21.1719C35.2891 18.7344 36.6719 16.2969 37.9375 13.8594C39.2031 11.375 40.3047 9.07812 41.2422 6.96875C41.9453 5.5625 42.5781 4.4375 43.1406 3.59375C43.7031 2.70312 44.2422 2.02344 44.7578 1.55469C45.3203 1.08594 45.8828 0.78125 46.4453 0.640625C47.0078 0.453125 47.6641 0.359375 48.4141 0.359375C51.2734 0.359375 52.7031 1.60156 52.7031 4.08594C52.6094 4.46094 52.5391 4.88281 52.4922 5.35156C52.4922 5.82031 52.375 6.35938 52.1406 6.96875L41.1719 39.3828C41.1719 40.5547 41.7578 41.1406 42.9297 41.1406C43.7734 41.0469 44.875 40.625 46.2344 39.875C47.6406 39.0781 49.0469 38.0938 50.4531 36.9219C51.8594 35.7031 53.1719 34.3203 54.3906 32.7734C55.6094 31.1797 56.5 29.5391 57.0625 27.8516C58.0938 24.7578 59.125 21.6406 60.1562 18.5C61.2344 15.3594 62.3594 12.5234 63.5312 9.99219C64.75 7.41406 66.0391 5.30469 67.3984 3.66406C68.8047 1.97656 70.3516 1.0625 72.0391 0.921875C73.5391 0.921875 74.7578 1.41406 75.6953 2.39844C76.6797 3.33594 77.1719 4.57812 77.1719 6.125C77.1719 7.95312 76.9141 9.92188 76.3984 12.0312C75.9297 14.1406 75.2969 16.25 74.5 18.3594C73.7031 20.4688 72.7422 22.5078 71.6172 24.4766C70.5391 26.4453 69.4141 28.2266 68.2422 29.8203C68.5703 30.8047 69.25 31.2969 70.2812 31.2969C72.1094 31.2969 73.8203 31.1562 75.4141 30.875C77.0547 30.5938 78.625 30.1953 80.125 29.6797C81.6719 29.1172 83.1953 28.4609 84.6953 27.7109C86.2422 26.9609 87.8359 26.0938 89.4766 25.1094C90.2266 24.5938 90.9766 24.3359 91.7266 24.3359C92.6641 24.3359 93.5078 24.6875 94.2578 25.3906C95.0078 26.0938 95.3828 27.0078 95.3828 28.1328C95.3828 29.1641 94.9141 30.2188 93.9766 31.2969C93.0859 32.375 91.8906 33.4297 90.3906 34.4609C88.8906 35.4922 87.1797 36.4531 85.2578 37.3438C83.3828 38.2344 81.4609 39.0312 79.4922 39.7344C77.5703 40.3906 75.6953 40.9297 73.8672 41.3516C72.0859 41.7266 70.5156 41.9141 69.1562 41.9141C66.5312 41.9141 63.8359 41.1641 61.0703 39.6641C57.7891 43.6016 54.3672 46.6016 50.8047 48.6641C47.2891 50.7266 43.7031 51.7578 40.0469 51.7578C36.6719 51.7578 34.2344 50.8906 32.7344 49.1562C31.2812 47.375 30.5547 44.7969 30.5547 41.4219C27.0391 44.9844 23.7344 47.6094 20.6406 49.2969C17.5938 50.9375 14.4531 51.7578 11.2188 51.7578C9.15625 51.7578 7.42188 51.5 6.01562 50.9844C4.65625 50.5156 3.55469 49.8359 2.71094 48.9453C1.86719 48.0547 1.25781 47.0234 0.882812 45.8516C0.554688 44.6328 0.390625 43.3203 0.390625 41.9141C0.390625 39.6172 0.71875 37.2031 1.375 34.6719C2.03125 32.0938 2.80469 29.6094 3.69531 27.2188C4.63281 24.8281 5.54688 22.625 6.4375 20.6094C7.375 18.5469 8.125 16.8828 8.6875 15.6172Z" fill="#2269D2"/>
</svg>
